<?xml version="1.0" encoding="UTF-8" standalone="no"?>
<!DOCTYPE svg PUBLIC "-//W3C//DTD SVG 1.1//EN"
 "http://www.w3.org/Graphics/SVG/1.1/DTD/svg11.dtd">
<!-- Generated by graphviz version 2.38.0 (20140413.2041)
 -->
<!-- Title: controllers_diagram Pages: 1 -->
<svg width="485pt" height="325pt"
 viewBox="0.00 0.00 485.27 325.00" xmlns="http://www.w3.org/2000/svg" xmlns:xlink="http://www.w3.org/1999/xlink">
<g id="graph0" class="graph" transform="scale(1 1) rotate(0) translate(165.584 159.048)">
<title>controllers_diagram</title>
<polygon fill="white" stroke="none" points="-165.584,165.952 -165.584,-159.048 319.688,-159.048 319.688,165.952 -165.584,165.952"/>
<!-- _diagram_info -->
<g id="node1" class="node"><title>_diagram_info</title>
<text text-anchor="start" x="116.312" y="48.9" font-family="Times,serif" font-size="13.00">Controllers diagram</text>
<text text-anchor="start" x="116.312" y="61.9" font-family="Times,serif" font-size="13.00">Date: Jun 20 2014 &#45; 18:32</text>
<text text-anchor="start" x="116.312" y="74.9" font-family="Times,serif" font-size="13.00">Migration version: 20140618003238</text>
<text text-anchor="start" x="116.312" y="87.9" font-family="Times,serif" font-size="13.00">Generated by RailRoady 1.1.1</text>
<text text-anchor="start" x="116.312" y="100.9" font-family="Times,serif" font-size="13.00">http://railroady.prestonlee.com</text>
</g>
<!-- ApplicationController -->
<g id="node2" class="node"><title>ApplicationController</title>
<path fill="none" stroke="black" d="M-149.584,-4.14332C-149.584,-4.14332 -33.9428,-4.14332 -33.9428,-4.14332 -27.9428,-4.14332 -21.9428,-10.1433 -21.9428,-16.1433 -21.9428,-16.1433 -21.9428,-84.1433 -21.9428,-84.1433 -21.9428,-90.1433 -27.9428,-96.1433 -33.9428,-96.1433 -33.9428,-96.1433 -149.584,-96.1433 -149.584,-96.1433 -155.584,-96.1433 -161.584,-90.1433 -161.584,-84.1433 -161.584,-84.1433 -161.584,-16.1433 -161.584,-16.1433 -161.584,-10.1433 -155.584,-4.14332 -149.584,-4.14332"/>
<text text-anchor="middle" x="-91.7636" y="-80.9433" font-family="Times,serif" font-size="14.00">ApplicationController</text>
<polyline fill="none" stroke="black" points="-161.584,-74.1433 -21.9428,-74.1433 "/>
<polyline fill="none" stroke="black" points="-161.584,-50.1433 -21.9428,-50.1433 "/>
<polyline fill="none" stroke="black" points="-161.584,-26.1433 -21.9428,-26.1433 "/>
<text text-anchor="start" x="-153.584" y="-10.9433" font-family="Times,serif" font-size="14.00">_layout</text>
</g>
<!-- StaticPagesController -->
<g id="node3" class="node"><title>StaticPagesController</title>
<path fill="none" stroke="black" d="M-1.93717,-22.548C-1.93717,-22.548 112.153,-22.548 112.153,-22.548 118.153,-22.548 124.153,-28.548 124.153,-34.548 124.153,-34.548 124.153,-142.548 124.153,-142.548 124.153,-148.548 118.153,-154.548 112.153,-154.548 112.153,-154.548 -1.93717,-154.548 -1.93717,-154.548 -7.93717,-154.548 -13.9372,-148.548 -13.9372,-142.548 -13.9372,-142.548 -13.9372,-34.548 -13.9372,-34.548 -13.9372,-28.548 -7.93717,-22.548 -1.93717,-22.548"/>
<text text-anchor="middle" x="55.1078" y="-139.348" font-family="Times,serif" font-size="14.00">StaticPagesController</text>
<polyline fill="none" stroke="black" points="-13.9372,-132.548 124.153,-132.548 "/>
<text text-anchor="start" x="-5.93717" y="-117.348" font-family="Times,serif" font-size="14.00">about</text>
<text text-anchor="start" x="-5.93717" y="-103.348" font-family="Times,serif" font-size="14.00">contact</text>
<text text-anchor="start" x="-5.93717" y="-89.348" font-family="Times,serif" font-size="14.00">help</text>
<text text-anchor="start" x="-5.93717" y="-75.348" font-family="Times,serif" font-size="14.00">home</text>
<polyline fill="none" stroke="black" points="-13.9372,-68.548 124.153,-68.548 "/>
<polyline fill="none" stroke="black" points="-13.9372,-44.548 124.153,-44.548 "/>
<text text-anchor="start" x="-5.93717" y="-29.348" font-family="Times,serif" font-size="14.00">_layout</text>
</g>
<!-- ApplicationController&#45;&gt;StaticPagesController -->
<g id="edge1" class="edge"><title>ApplicationController&#45;&gt;StaticPagesController</title>
<path fill="none" stroke="black" d="M-21.7691,-68.4459C-19.2571,-69.1027 -16.7396,-69.761 -14.2286,-70.4176"/>
</g>
<!-- UsersController -->
<g id="node4" class="node"><title>UsersController</title>
<path fill="none" stroke="black" d="M-35.2645,161.452C-35.2645,161.452 46.1633,161.452 46.1633,161.452 52.1633,161.452 58.1633,155.452 58.1633,149.452 58.1633,149.452 58.1633,69.4515 58.1633,69.4515 58.1633,63.4515 52.1633,57.4515 46.1633,57.4515 46.1633,57.4515 -35.2645,57.4515 -35.2645,57.4515 -41.2645,57.4515 -47.2645,63.4515 -47.2645,69.4515 -47.2645,69.4515 -47.2645,149.452 -47.2645,149.452 -47.2645,155.452 -41.2645,161.452 -35.2645,161.452"/>
<text text-anchor="middle" x="5.44939" y="72.6515" font-family="Times,serif" font-size="14.00">UsersController</text>
<polyline fill="none" stroke="black" points="-47.2645,79.4515 58.1633,79.4515 "/>
<text text-anchor="start" x="-39.2645" y="94.6515" font-family="Times,serif" font-size="14.00">new</text>
<text text-anchor="start" x="-39.2645" y="108.652" font-family="Times,serif" font-size="14.00">show</text>
<polyline fill="none" stroke="black" points="-47.2645,115.452 58.1633,115.452 "/>
<polyline fill="none" stroke="black" points="-47.2645,139.452 58.1633,139.452 "/>
<text text-anchor="start" x="-39.2645" y="154.652" font-family="Times,serif" font-size="14.00">_layout</text>
</g>
<!-- ApplicationController&#45;&gt;UsersController -->
<g id="edge2" class="edge"><title>ApplicationController&#45;&gt;UsersController</title>
<path fill="none" stroke="black" d="M-63.6456,-3.98187C-51.9819,15.1665 -38.3915,37.4778 -26.365,57.2218"/>
</g>
</g>
</svg>
