<?xml version="1.0" encoding="UTF-8" standalone="no"?>
<!DOCTYPE svg PUBLIC "-//W3C//DTD SVG 1.1//EN"
 "http://www.w3.org/Graphics/SVG/1.1/DTD/svg11.dtd">
<!-- Generated by graphviz version 2.38.0 (20140413.2041)
 -->
<!-- Title: models_diagram Pages: 1 -->
<svg width="396pt" height="232pt"
 viewBox="0.00 0.00 396.01 232.00" xmlns="http://www.w3.org/2000/svg" xmlns:xlink="http://www.w3.org/1999/xlink">
<g id="graph0" class="graph" transform="scale(1 1) rotate(0) translate(4 228)">
<title>models_diagram</title>
<polygon fill="white" stroke="none" points="-4,4 -4,-228 392.009,-228 392.009,4 -4,4"/>
<!-- _diagram_info -->
<g id="node1" class="node"><title>_diagram_info</title>
<text text-anchor="start" x="8" y="-209.6" font-family="Times,serif" font-size="13.00">Models diagram</text>
<text text-anchor="start" x="8" y="-196.6" font-family="Times,serif" font-size="13.00">Date: Jun 20 2014 &#45; 18:32</text>
<text text-anchor="start" x="8" y="-183.6" font-family="Times,serif" font-size="13.00">Migration version: 20140618003238</text>
<text text-anchor="start" x="8" y="-170.6" font-family="Times,serif" font-size="13.00">Generated by RailRoady 1.1.1</text>
<text text-anchor="start" x="8" y="-157.6" font-family="Times,serif" font-size="13.00">http://railroady.prestonlee.com</text>
</g>
<!-- User -->
<g id="node2" class="node"><title>User</title>
<path fill="none" stroke="black" d="M244.386,-0.5C244.386,-0.5 368.99,-0.5 368.99,-0.5 374.99,-0.5 380.99,-6.5 380.99,-12.5 380.99,-12.5 380.99,-102.5 380.99,-102.5 380.99,-108.5 374.99,-114.5 368.99,-114.5 368.99,-114.5 244.386,-114.5 244.386,-114.5 238.386,-114.5 232.386,-108.5 232.386,-102.5 232.386,-102.5 232.386,-12.5 232.386,-12.5 232.386,-6.5 238.386,-0.5 244.386,-0.5"/>
<text text-anchor="middle" x="306.688" y="-99.3" font-family="Times,serif" font-size="14.00">User</text>
<polyline fill="none" stroke="black" points="232.386,-92.5 380.99,-92.5 "/>
<text text-anchor="start" x="240.386" y="-77.3" font-family="Times,serif" font-size="14.00">id :integer</text>
<text text-anchor="start" x="240.386" y="-63.3" font-family="Times,serif" font-size="14.00">name :string</text>
<text text-anchor="start" x="240.386" y="-49.3" font-family="Times,serif" font-size="14.00">email :string</text>
<text text-anchor="start" x="240.386" y="-35.3" font-family="Times,serif" font-size="14.00">created_at :datetime</text>
<text text-anchor="start" x="240.386" y="-21.3" font-family="Times,serif" font-size="14.00">updated_at :datetime</text>
<text text-anchor="start" x="240.386" y="-7.3" font-family="Times,serif" font-size="14.00">password_digest :string</text>
</g>
<!-- ActiveRecord::Base -->
<g id="node3" class="node"><title>ActiveRecord::Base</title>
<ellipse fill="none" stroke="black" cx="306.688" cy="-187.5" rx="81.1422" ry="18"/>
<text text-anchor="middle" x="306.688" y="-183.3" font-family="Times,serif" font-size="14.00">ActiveRecord::Base</text>
</g>
<!-- ActiveRecord::Base&#45;&gt;User -->
<g id="edge1" class="edge"><title>ActiveRecord::Base&#45;&gt;User</title>
<path fill="none" stroke="black" d="M306.688,-169.237C306.688,-155.112 306.688,-134.307 306.688,-114.534"/>
</g>
</g>
</svg>
